<svg width="640" height="640" viewBox="0 0 640 640" xmlns="http://www.w3.org/2000/svg" role="img" aria-label="Abacaxita logo circular">
  <defs>
    <linearGradient id="border" x1="0%" y1="0%" x2="100%" y2="0%">
      <stop offset="0%" stop-color="#f6d34d"/>
      <stop offset="50%" stop-color="#f6b24d"/>
      <stop offset="100%" stop-color="#f28746"/>
    </linearGradient>
    <linearGradient id="leaf" x1="50%" y1="0%" x2="50%" y2="100%">
      <stop offset="0%" stop-color="#4e7a2a"/>
      <stop offset="100%" stop-color="#70a437"/>
    </linearGradient>
    <linearGradient id="fruit" x1="50%" y1="0%" x2="50%" y2="100%">
      <stop offset="0%" stop-color="#f9c643"/>
      <stop offset="100%" stop-color="#f3a634"/>
    </linearGradient>
  </defs>
  <circle cx="320" cy="320" r="300" fill="none" stroke="url(#border)" stroke-width="18"/>
  <g transform="translate(120 80)">
    <path d="M200 40 165 120 200 140 235 120Z" fill="url(#leaf)" stroke="#27451c" stroke-width="6" stroke-linejoin="round"/>
    <path d="M130 140 200 185 270 140 200 220Z" fill="url(#leaf)" stroke="#27451c" stroke-width="6" stroke-linejoin="round"/>
    <g transform="translate(0 150)" stroke="#d6861f" stroke-width="8" stroke-linejoin="round">
      <path d="M200 30 140 105 200 150 260 105Z" fill="url(#fruit)"/>
      <path d="M90 110 150 170 190 130 130 80Z" fill="url(#fruit)"/>
      <path d="M310 110 250 170 210 130 270 80Z" fill="url(#fruit)"/>
      <path d="M150 190 200 240 250 190 200 150Z" fill="url(#fruit)"/>
    </g>
  </g>
</svg>
