<svg width="640" height="640" viewBox="0 0 640 640" xmlns="http://www.w3.org/2000/svg" role="img" aria-label="Abacaxita logo iluminado">
  <defs>
    <radialGradient id="bg" cx="50%" cy="50%" r="60%">
      <stop offset="0%" stop-color="#0f2c0f"/>
      <stop offset="100%" stop-color="#0a160a"/>
    </radialGradient>
    <radialGradient id="halo" cx="50%" cy="50%" r="50%">
      <stop offset="0%" stop-color="#f7e7b0" stop-opacity="0.95"/>
      <stop offset="70%" stop-color="#f7d976" stop-opacity="0.75"/>
      <stop offset="100%" stop-color="transparent"/>
    </radialGradient>
    <linearGradient id="fruit" x1="50%" y1="0%" x2="50%" y2="100%">
      <stop offset="0%" stop-color="#f9c643"/>
      <stop offset="100%" stop-color="#f29c38"/>
    </linearGradient>
    <linearGradient id="leaf" x1="50%" y1="0%" x2="50%" y2="100%">
      <stop offset="0%" stop-color="#568c34"/>
      <stop offset="100%" stop-color="#3f6b2b"/>
    </linearGradient>
  </defs>
  <rect width="640" height="640" fill="url(#bg)"/>
  <circle cx="320" cy="320" r="250" fill="url(#halo)"/>
  <circle cx="320" cy="320" r="220" fill="#f9f1d7" opacity="0.9" stroke="#f7b34a" stroke-width="14"/>
  <g transform="translate(140 120)">
    <path d="M180 40 150 110 180 130 210 110Z" fill="url(#leaf)" stroke="#2b451e" stroke-width="6" stroke-linejoin="round"/>
    <path d="M120 130 180 175 240 130 180 210Z" fill="url(#leaf)" stroke="#2b451e" stroke-width="6" stroke-linejoin="round"/>
    <g transform="translate(0 160)" stroke="#e08a2a" stroke-width="8" stroke-linejoin="round">
      <path d="M180 20 130 90 180 130 230 90Z" fill="url(#fruit)"/>
      <path d="M80 95 140 150 170 120 120 75Z" fill="url(#fruit)"/>
      <path d="M280 95 220 150 190 120 240 75Z" fill="url(#fruit)"/>
      <path d="M140 170 180 210 220 170 180 130Z" fill="url(#fruit)"/>
    </g>
  </g>
</svg>
